<svg width="3017" height="590" viewBox="0 0 3017 590" fill="none" xmlns="http://www.w3.org/2000/svg">
<path d="M64.734 370.727C38.0377 199.253 47.3814 373.302 4 587H3010C2986.64 557.134 2929.91 510.79 2889.87 564.343C2849.82 617.896 2808.67 497.401 2793.09 430.46C2750.82 418.616 2666.29 382.777 2666.29 334.167C2666.29 285.557 2603.99 305.674 2572.85 321.808C2509.67 280.098 2379.3 199.562 2363.28 211.097C2343.26 225.515 2273.18 97.8112 2259.83 34.4741C2246.49 -28.863 2216.45 13.8767 2189.76 70.5196C2163.06 127.163 2189.76 26.7501 2129.69 13.8767C2069.62 1.00327 2099.66 248.172 2039.59 248.172C1979.52 248.172 1986.87 334.167 1920.12 303.27C1853.38 272.374 1888.76 303.27 1852.05 350.645C1815.34 398.019 1801.33 370.727 1776.63 350.645C1751.94 330.562 1717.23 370.727 1687.2 394.929C1657.17 419.131 1664.51 350.645 1639.81 321.808C1615.12 292.972 1613.79 303.27 1541.71 358.369C1469.63 413.467 1459.61 143.64 1414.23 97.8112C1368.85 51.9819 1373.52 53.0118 1306.78 143.64C1240.36 233.836 1143.53 198.055 1095.89 180.453L1095.21 180.201C1047.82 162.693 1065.18 184.32 1026.47 274.949C987.758 365.578 949.715 350.645 909.671 211.097C869.627 71.5495 848.27 247.657 811.562 350.645C774.855 453.632 678.081 392.354 646.713 303.27C615.345 214.187 629.36 318.204 574.633 350.645C539.26 330.562 545.267 351.674 520.573 408.317C495.879 464.96 481.863 489.677 464.511 370.727C447.158 251.777 455.834 334.167 429.138 334.167C402.442 334.167 382.42 323.353 364.4 230.15C349.984 155.587 333.032 236.844 326.357 286.793C319.238 272.889 303.666 251.056 298.326 274.949C291.652 304.815 201.552 612.747 173.521 334.167C145.49 55.5865 138.816 334.167 124.801 408.317C110.785 482.468 91.4303 542.201 64.734 370.727Z" fill="url(#paint0_linear_13_2)" stroke="#3949AB" stroke-width="6"/>
<defs>
<linearGradient id="paint0_linear_13_2" x1="1343.49" y1="586.937" x2="1341.5" y2="116.28" gradientUnits="userSpaceOnUse">
<stop stop-opacity="0"/>
<stop offset="1" stop-color="#3949AB" stop-opacity="0.35"/>
</linearGradient>
</defs>
</svg>
