<svg width="1000" height="1000" viewBox="0 0 1000 1000" fill="none" xmlns="http://www.w3.org/2000/svg">
<path d="M0 100C0 44.7715 44.7715 0 100 0H900C955.228 0 1000 44.7715 1000 100V900C1000 955.228 955.228 1000 900 1000H100C44.7715 1000 0 955.228 0 900V100Z" fill="url(#paint0_linear_238_6)"/>
<path d="M325.844 805C307.615 805 298.5 795.234 298.5 775.703V274.141C298.5 254.609 307.615 244.844 325.844 244.844H383.656C406.052 244.844 422.979 253.958 434.438 272.188L633.656 592.109H636.391C635.089 576.484 634.438 560.859 634.438 545.234V274.141C634.438 254.609 643.552 244.844 661.781 244.844H721.156C739.385 244.844 748.5 254.609 748.5 274.141V775.703C748.5 795.234 739.385 805 721.156 805H667.25C644.854 805 627.927 795.885 616.469 777.656L413.344 451.875H410.609C411.911 467.5 412.562 483.125 412.562 498.75V775.703C412.562 795.234 403.448 805 385.219 805H325.844Z" fill="rgb(165 180 252)"/>
<defs>
<linearGradient id="paint0_linear_238_6" x1="953" y1="1053" x2="191" y2="-807.5" gradientUnits="userSpaceOnUse">
<stop stop-color="rgb(67 56 202)"/>
<stop offset="1" stop-color="rgb(99 102 241)"/>
</linearGradient>
</defs>
</svg>
