<svg width="275" height="266" viewBox="0 0 275 266" fill="none" xmlns="http://www.w3.org/2000/svg">
<path d="M262.906 266H10.9445C4.89108 266 -0.0600357 261.105 0.198597 255.057C2.41125 203.317 23.0092 169.576 71.1684 143.101C74.7267 141.145 79.0891 141.475 82.4954 143.685C122.822 169.849 149.362 166.956 194.361 143.051C197.853 141.196 202.091 141.267 205.425 143.393C258.382 177.149 279.38 210.177 273.437 257.012C272.772 262.248 268.183 266 262.906 266Z" fill="#D9D9D9"/>
<path d="M207 70C207 108.66 175.66 140 137 140C98.3401 140 67 108.66 67 70C67 31.3401 98.3401 0 137 0C175.66 0 207 31.3401 207 70Z" fill="#D9D9D9"/>
</svg>
