<svg width="704" height="704" viewBox="0 0 704 704" fill="none" xmlns="http://www.w3.org/2000/svg">
<path d="M522.882 385.164V201.539C522.882 196.669 520.936 191.998 517.472 188.555C514.007 185.111 509.308 183.176 504.409 183.176H199.591C194.692 183.176 189.993 185.111 186.528 188.555C183.064 191.998 181.118 196.669 181.118 201.539V504.52C181.118 509.39 183.064 514.061 186.528 517.504C189.993 520.948 194.692 522.882 199.591 522.882H384.329M404.623 405.336L303.728 305.048M232 476.5V305C226.5 278 232.1 223.5 298.5 221.5C364.9 219.5 442.5 220.667 473 221.5M473 270H352M473 319H407M278 473V352M327 473V407M2 63.7647C2 29.653 29.653 2 63.7647 2H640.235C674.347 2 702 29.653 702 63.7647V640.235C702 674.347 674.347 702 640.235 702H63.7647C29.653 702 2 674.347 2 640.235V63.7647ZM522.882 454.023C522.882 492.053 491.866 522.882 453.606 522.882C415.345 522.882 384.329 492.053 384.329 454.023C384.329 415.993 415.345 385.164 453.606 385.164C491.866 385.164 522.882 415.993 522.882 454.023ZM309.139 292.064C309.139 302.205 300.868 310.427 290.665 310.427C280.462 310.427 272.191 302.205 272.191 292.064C272.191 281.923 280.462 273.702 290.665 273.702C300.868 273.702 309.139 281.923 309.139 292.064Z" stroke="#F9D4D4" stroke-width="4"/>
</svg>
